<svg id="Component_66_1" data-name="Component 66 – 1" xmlns="http://www.w3.org/2000/svg" width="150.739" height="47.107" viewBox="0 0 150.739 47.107">
  <path id="Path_2026" data-name="Path 2026" d="M212.68,169.1h1.574a17.064,17.064,0,0,0-1.574-1.979V164.6c3.807,3.29,6.113,7.565,6.113,12.231s-2.306,8.94-6.113,12.228v-2.516a16.929,16.929,0,0,0,1.557-1.956H212.68v-1.68h2.554a13.125,13.125,0,0,0,.011-12.132H212.68V169.1Zm0,31.358v-9.333h6.113v9.333Zm0-37.518V153.6h6.113v9.333Zm-7.564,1.255a18.149,18.149,0,0,1,2.958,4.9h4.606v1.68h-4.039a21.912,21.912,0,0,1-.008,12.132h4.047v1.68h-4.615a19.339,19.339,0,0,1-2.949,5.148v-2.5a13.265,13.265,0,0,0,1.257-2.65h-1.257v-1.68h1.758a24.711,24.711,0,0,0,.006-12.132h-1.764V169.1h1.1a12.2,12.2,0,0,0-1.1-2.323v-2.582Zm7.564,2.926V164.6a23.23,23.23,0,0,0-2.178-1.664h2.178V153.6h-7.564v9.333h2.127a21.214,21.214,0,0,1,5.437,4.181Zm0,19.426a21.53,21.53,0,0,1-6.195,4.578h-1.369v9.333h7.564v-9.333h-2.787a23.492,23.492,0,0,0,2.787-2.062Zm-8.664-23.608c.372.4.743.818,1.1,1.255v2.582a17.435,17.435,0,0,0-3.164-3.837h-3.412v6.16h6.576v1.68h-6.576v12.132h6.576v1.68h-6.576v6.533h3.235a16.786,16.786,0,0,0,3.34-3.883v2.5a17.589,17.589,0,0,1-1.24,1.386h1.24v9.333h-23.08v-9.333h1.248a17.591,17.591,0,0,1-1.248-1.4v-2.587a17.237,17.237,0,0,0,3.51,3.983h3.281v-6.533h-6.792v-1.68h6.792V170.777h-6.792V169.1h6.792v-6.16h-2.967a15.911,15.911,0,0,0-3.825,3.956v-2.526c.435-.5.888-.979,1.352-1.43h-1.352V153.6h23.08v9.333ZM182.037,153.6v9.333h-2.119a21.2,21.2,0,0,0-5.437,4.184V164.6a23.03,23.03,0,0,1,2.178-1.666h-2.178V153.6Zm0,10.763a16.275,16.275,0,0,0-2.952,4.73h-4.6v1.68h4.039a21.927,21.927,0,0,0,.006,12.132h-4.046v1.68H179.1a19.315,19.315,0,0,0,2.941,5.137v-2.587a12.229,12.229,0,0,1-1.249-2.55h1.249v-1.68h-1.751a24.733,24.733,0,0,1-.005-12.132h1.756V169.1h-1.175a12.7,12.7,0,0,1,1.175-2.2v-2.526Zm0,26.755v9.333h-7.556v-9.333h2.787a23.53,23.53,0,0,1-2.787-2.062v-2.518a21.548,21.548,0,0,0,6.193,4.58ZM174.481,153.6v9.333h-5.7V153.6Zm0,11v2.518a17.027,17.027,0,0,0-1.572,1.976h1.572v1.68h-2.564a13.114,13.114,0,0,0,.012,12.132h2.553v1.68h-1.557a16.929,16.929,0,0,0,1.557,1.953v2.518c-3.805-3.289-6.112-7.565-6.112-12.228s2.306-8.94,6.112-12.229Zm0,26.52v9.333h-5.7v-9.333Z" transform="translate(-115.228 -153.558)" fill="#dc000c" fill-rule="evenodd"/>
  <path id="Path_2027" data-name="Path 2027" d="M179.06,153.568v46.746H167.093V167.1l-10.014,33.211h-9.544l-8.77-33.394v33.394H126.8V153.568h19.217l6.578,28.178,7.675-28.178Z" transform="translate(-126.797 -153.568)" fill="#dc000c" fill-rule="evenodd"/>
  <path id="Path_2028" data-name="Path 2028" d="M232.388,153.659a24.118,24.118,0,0,1,21.318,12.705l-12.488,4.417c-1.626-4.442-5.006-7.506-8.9-7.506-5.469,0-9.93,6.053-9.93,13.473s4.461,13.475,9.93,13.475c4.48,0,8.283-4.064,9.513-9.613l13,4.879a24.062,24.062,0,0,1-22.444,15.161c-13.224,0-24.01-10.555-24.01-23.5S219.164,153.659,232.388,153.659Z" transform="translate(-104.093 -153.543)" fill="#dc000c" fill-rule="evenodd"/>
</svg>
