<svg xmlns="http://www.w3.org/2000/svg" viewBox="0 0 448 512">
  <path fill="#06C755" d="M272.1 204.2v47.38c0 4.75-3.875 8.62-8.62 8.62h-4.75v-65.25h4.75C268.2 195 272.1 199.5 272.1 204.2zM200 177.6c0-4.75 3.875-8.62 8.62-8.62h4.75v65.25h-4.75c-4.75 0-8.62-3.875-8.62-8.625V177.6zM224 64C100.3 64 0 164.8 0 289.7c0 109.5 89.62 199.1 199.4 199.1c17.38 0 34.75-2.25 51.38-6.875c9.25-2.5 17.38-7.5 23.88-14.5c8.25-8.875 12.25-20.5 12.25-32.25c0-6.75-1.375-8.625-1.375-17.5c0-7.75 5.375-14.62 12.88-16.5c49.75-12.75 88.38-46.5 105.4-93.25c6-16.625 9.125-34.12 9.125-51.1C412 164.8 347.7 64 224 64zM293.4 310.6c-1.75 1.5-3.75 2.875-5.875 3.75C280.1 319.6 273.4 320 265.8 320c-18.5 0-38-4.25-57.62-7.75c-19.38-3.5-39.5-7.125-58-7.125c-4.75 0-9.25 .25-13.38 .75c-11 1.375-20.88 8.5-26.5 19.25c-2.75 5.375-4.125 11.38-4.125 17.38c0 4.5 .75 9 2.125 13.25c3.375 10.12 10.88 18.25 20.12 22.38c7.375 3.375 15.12 5.125 23.12 5.125c19.38 0 37.12-4.75 53.88-9.25C227 367.9 249.4 361 272.6 361c5.375 0 10.62 .375 15.75 1.125c11.88 1.625 23.38 7.75 30.38 17.12c3.5 4.75 5.75 10.62 6.375 16.5c.4922 4.625 .4892 9.375-.25 14c-5.75-5.5-12.62-9.375-20.25-11.5C297 395.6 289.6 395 282.1 395c-10.88 0-21.38 2-31.62 4.125C238.8 401.8 227.5 404 215.6 404c-10 0-19.62-1.875-29-5.5c-2.75-1-5.375-2.25-7.75-3.875l-1.625-1.125c-2.625-1.875-5.5-3.25-8.5-4.125C164.5 388.4 160.1 387.9 156.8 387.9c-5.375 0-10.75 1.375-15.5 4c-9 5-14.62 14.75-14.25 25c.125 2.75 .75 5.5 1.75 8.125c5.75 14.5 21.25 24.25 37.5 23.5l.9911 .0566c-32.5-1.375-66.88-41.25-66.88-78.88c0-12.25 3.875-23.88 11.12-33.5c7-9.25 16.38-15.38 26.88-17.62c4.125-.625 8.5-.9375 12.88-.9375c22.25 0 44.75 4.5 66.38 8.625C236.9 331 257.5 335 276.5 335c4.875 0 9.5-.375 13.88-1.125c4.625-.75 9.25-2.875 12.75-6.25c13.25-12.75 12.75-35.28-1.125-47.12c-7.125-6.125-16-9.375-25.12-9.375c-12.38 0-24.28 5.5-32.16 15.12c-1.375 1.625-3.875 2-5.75 .875c-1.875-1.125-2.625-3.5-1.75-5.625c5.875-13.5 17.88-23.75 31.88-27.88c6.125-1.75 12.62-2.625 19-2.625c6.75 0 13.25 1 19.38 3c12.75 4.125 23.75 13.25 30.25 25.38c6.5 12.25 8.125 26.62 4.375 40c-5.25 18.25-20.12 32.88-38.38 37.75c-4.625 1.25-9.5 1.875-14.25 1.875c-19.88 0-39.25-6.75-57.75-13.25C205.5 339.9 183.1 333 162.4 333c-6.25 0-12.25 .75-18.12 2.25c-10.25 2.5-19.25 8.75-25 17.62c-5.75 8.875-8.25 19.38-7 30c1.75 14.75 10.38 28.38 23.12 36.75c.125 .125 .375 .25 .5 .375c-15.12-6.5-29-15.75-40-27.5c-18.62-19.88-28.88-46.25-28.88-74.12c0-59.75 48.48-108.4 108.1-108.4c59.75 0 108.2 48.62 108.2 108.4C294 271.5 293.8 278.9 293.4 286.5C293 294.6 294.1 302.9 293.4 310.6z"/>
</svg> 